<svg width="748" height="748" viewBox="0 0 748 748" fill="none" xmlns="http://www.w3.org/2000/svg">
<path d="M381.654 13.9942L623.151 114.025C628.051 116.055 631.945 119.949 633.975 124.849L734.006 366.346C736.036 371.247 736.036 376.753 734.006 381.654L633.975 623.151C631.945 628.051 628.051 631.945 623.151 633.975L381.654 734.006C376.753 736.036 371.247 736.036 366.346 734.006L124.849 633.975C119.949 631.945 116.055 628.051 114.025 623.151L13.9942 381.654C11.9643 376.753 11.9643 371.247 13.9942 366.346L114.025 124.849C116.055 119.949 119.949 116.055 124.849 114.025L366.346 13.9942C371.247 11.9643 376.753 11.9643 381.654 13.9942Z" stroke="url(#paint0_linear)" stroke-width="20"/>
<path d="M362.519 145.005C369.87 141.961 378.13 141.961 385.481 145.005L527.806 203.958C535.157 207.003 540.997 212.843 544.042 220.194L602.995 362.519C606.039 369.87 606.039 378.13 602.995 385.481L544.042 527.806C540.997 535.157 535.157 540.997 527.806 544.042L385.481 602.995C378.13 606.039 369.87 606.039 362.519 602.995L220.194 544.042C212.843 540.997 207.003 535.157 203.958 527.806L145.005 385.481C141.961 378.13 141.961 369.87 145.005 362.519L203.958 220.194C207.003 212.843 212.843 207.003 220.194 203.958L362.519 145.005Z" fill="url(#paint1_linear)"/>
<defs>
<linearGradient id="paint0_linear" x1="-129.03" y1="6.97605e-07" x2="1060.29" y2="945.285" gradientUnits="userSpaceOnUse">
<stop stop-color="#19F1B0"/>
<stop offset="1" stop-color="#32D6CB"/>
</linearGradient>
<linearGradient id="paint1_linear" x1="226.21" y1="236.766" x2="554.968" y2="514.25" gradientUnits="userSpaceOnUse">
<stop stop-color="#19F1B0"/>
<stop offset="1" stop-color="#32D6CB"/>
</linearGradient>
</defs>
</svg>
