<svg width="122" height="122" viewBox="0 0 122 122" fill="none" xmlns="http://www.w3.org/2000/svg">
<path d="M53.3463 1.67025C58.2469 -0.359627 63.7531 -0.359626 68.6537 1.67025L97.5405 13.6356C102.441 15.6655 106.335 19.5589 108.364 24.4595L120.33 53.3463C122.36 58.2469 122.36 63.7531 120.33 68.6537L108.364 97.5405C106.335 102.441 102.441 106.335 97.5405 108.364L68.6537 120.33C63.7531 122.36 58.2469 122.36 53.3463 120.33L24.4595 108.364C19.5589 106.335 15.6654 102.441 13.6356 97.5405L1.67025 68.6537C-0.359627 63.7531 -0.359626 58.2469 1.67025 53.3463L13.6356 24.4595C15.6655 19.5589 19.5589 15.6654 24.4595 13.6356L53.3463 1.67025Z" fill="url(#paint0_linear)"/>
<defs>
<linearGradient id="paint0_linear" x1="21.4839" y1="24.3065" x2="109.387" y2="98.5" gradientUnits="userSpaceOnUse">
<stop stop-color="#19F1B0"/>
<stop offset="1" stop-color="#32D6CB"/>
</linearGradient>
</defs>
</svg>
